<svg width="51" height="53" viewBox="0 0 51 53" fill="none" xmlns="http://www.w3.org/2000/svg">
<path d="M19.2729 39.4083V39.2792C19.2729 34.0542 23.4729 29.6583 29.175 28.3771C28.4167 23.5812 23.3542 19.6667 16.9813 19.6667C10.0646 19.6667 4.68962 24.2771 4.68962 29.625C4.68962 31.6438 5.43962 33.5833 6.85628 35.2458C6.92295 35.325 7.0292 35.4417 7.17295 35.5896C8.39774 36.8483 9.13728 38.5001 9.26045 40.2521C10.7481 39.3921 12.4854 39.0671 14.1834 39.3313C14.5292 39.3854 14.8125 39.4271 15.0271 39.4563C16.4377 39.6395 17.8671 39.6247 19.2729 39.4083ZM20.225 43.4729C18.3298 43.7983 16.3964 43.837 14.4896 43.5875C14.1738 43.5448 13.8585 43.4982 13.5438 43.4479C12.7652 43.3266 11.9687 43.483 11.2938 43.8896L7.32712 46.2813C7.02162 46.4695 6.66386 46.5549 6.30628 46.525C6.09002 46.5087 5.8791 46.4498 5.68563 46.3518C5.49215 46.2538 5.31993 46.1186 5.17884 45.9539C5.03774 45.7891 4.93054 45.5982 4.86339 45.392C4.79625 45.1857 4.77047 44.9683 4.78753 44.7521L5.10003 41.0417C5.13897 40.5763 5.07747 40.1079 4.91968 39.6683C4.76188 39.2287 4.51149 38.8282 4.18545 38.4938C4.01228 38.3172 3.84483 38.1352 3.68337 37.9479C1.69587 35.6146 0.522949 32.7354 0.522949 29.6229C0.522949 21.8229 7.8917 15.5 16.9813 15.5C25.4396 15.5 32.4042 20.9729 33.3354 28.0167C40.3604 28.3354 45.9396 33.2562 45.9396 39.2792C45.9396 41.7646 44.9896 44.0625 43.3792 45.925C43.2729 46.05 43.1375 46.1958 42.9729 46.3625C42.7096 46.6276 42.5069 46.9467 42.3789 47.2978C42.2509 47.6488 42.2005 48.0234 42.2313 48.3958L42.4834 51.3604C42.4961 51.5342 42.4744 51.7089 42.4195 51.8743C42.3645 52.0397 42.2774 52.1926 42.1632 52.3242C42.049 52.4559 41.9099 52.5636 41.7539 52.6414C41.5979 52.7191 41.4281 52.7652 41.2542 52.7771C40.9647 52.8008 40.6752 52.7322 40.4271 52.5813L37.2125 50.6708C36.6645 50.3465 36.0211 50.2221 35.3917 50.3188C35.0854 50.3667 34.8292 50.4021 34.625 50.4292C33.9667 50.5125 33.2917 50.5583 32.6063 50.5583C26.9938 50.5583 22.1938 47.625 20.225 43.4729ZM34.7604 46.2021C35.9362 46.0211 37.1387 46.146 38.2521 46.5646C38.5443 45.383 39.1495 44.302 40.0042 43.4354C40.1084 43.3313 40.1854 43.2479 40.225 43.2021C41.2438 42.025 41.7729 40.675 41.7729 39.2792C41.7729 35.5208 37.8084 32.1667 32.6063 32.1667C27.4042 32.1667 23.4396 35.5208 23.4396 39.2792C23.4396 43.0375 27.4042 46.3917 32.6063 46.3917C33.1084 46.3917 33.6063 46.3583 34.0938 46.2958C34.2604 46.275 34.4854 46.2458 34.7604 46.2021Z" fill="#DF7857"/>
</svg>
