<svg width="55" height="62" viewBox="0 0 55 62" fill="none" xmlns="http://www.w3.org/2000/svg">
<path d="M25.482 37.6073C26.6262 38.6476 28.3738 38.6476 29.518 37.6073L37.3775 30.4624C38.2089 29.7065 39.4786 29.7065 40.31 30.4623C41.2613 31.3272 41.2613 32.8233 40.31 33.6881L29.518 43.499C28.3738 44.5392 26.6262 44.5392 25.482 43.499L14.69 33.6881C13.7387 32.8233 13.7387 31.3272 14.69 30.4623C15.5214 29.7065 16.7911 29.7065 17.6225 30.4623L25.482 37.6073Z" fill="black"/>
<path d="M25.482 25.6073C26.6262 26.6476 28.3738 26.6476 29.518 25.6073L37.3775 18.4624C38.2089 17.7065 39.4786 17.7065 40.31 18.4623C41.2613 19.3272 41.2613 20.8233 40.31 21.6881L29.518 31.499C28.3738 32.5392 26.6262 32.5392 25.482 31.499L14.69 21.6881C13.7387 20.8233 13.7387 19.3272 14.69 18.4623C15.5214 17.7065 16.7911 17.7065 17.6225 18.4623L25.482 25.6073Z" fill="black"/>
</svg>
