<svg width="61" height="60" viewBox="0 0 61 60" fill="none" xmlns="http://www.w3.org/2000/svg">
<path d="M40.4316 39.6377L47.4622 45.2627C47.8653 45.5861 48.4559 45.5205 48.7793 45.1174C49.1027 44.7142 49.0371 44.1236 48.634 43.8002L41.6034 38.1753C41.2003 37.8518 40.6097 37.9174 40.2863 38.3206C39.9629 38.7237 40.0285 39.3143 40.4316 39.6377Z" fill="#DF7857"/>
<path d="M19.2223 38.4377C23.286 38.4471 27.2513 37.158 30.5323 34.7581L32.754 36.9799L32.4259 37.308C31.7509 37.983 31.6947 39.0565 32.2852 39.8018L47.7433 59.2922C48.076 59.7094 48.5729 59.9672 49.1072 59.9953C49.1447 59.9953 49.1775 60 49.215 60C49.7118 60 50.1899 59.8031 50.5415 59.4516L59.4563 50.536C60.1875 49.8001 60.1828 48.6095 59.4469 47.8782C59.4001 47.8314 59.3485 47.7845 59.2969 47.7423L39.8033 32.2831C39.0581 31.6878 37.9894 31.7487 37.3145 32.4237L36.9864 32.7518L34.76 30.53C40.3283 22.88 39.4987 12.3192 32.8102 5.63022C25.3062 -1.8744 13.1385 -1.87908 5.62978 5.63022C-1.87425 13.1348 -1.87894 25.3035 5.62978 32.8128C9.22478 36.4315 14.1228 38.4565 19.2223 38.4424V38.4377ZM38.6363 33.7503L54.7411 46.5236L46.5293 54.736L33.7523 38.6346L38.6363 33.7503ZM35.66 34.0784L34.0804 35.6581L31.9993 33.5721C32.2759 33.3237 32.5477 33.0753 32.8102 32.8081C33.0774 32.5456 33.3305 32.2737 33.5742 31.9971L35.66 34.0784ZM9.60912 9.60518C14.9196 4.29898 23.5251 4.29898 28.8309 9.60518C34.1367 14.9161 34.1367 23.5222 28.8309 28.8284C23.5251 34.1346 14.9196 34.1346 9.6138 28.8284C4.30333 23.555 4.27521 14.977 9.54819 9.66612C9.57162 9.64268 9.59037 9.62393 9.6138 9.60049L9.60912 9.60518Z" fill="#DF7857"/>
<path d="M13.2559 11.8458C16.5509 8.55517 21.8942 8.55517 25.1892 11.8458C25.3626 12.0239 25.6017 12.1223 25.8501 12.1223C26.3703 12.1223 26.7875 11.7004 26.7875 11.1801C26.7875 10.9317 26.6891 10.6926 26.5156 10.5192C22.4847 6.50206 15.9603 6.50206 11.9294 10.5192C11.5638 10.8848 11.5638 11.4801 11.9294 11.8458C12.295 12.2114 12.8903 12.2114 13.2559 11.8458Z" fill="#DF7857"/>
</svg>
