<svg width="70" height="70" viewBox="0 0 70 70" fill="none" xmlns="http://www.w3.org/2000/svg">
<path d="M0 70H70V0H0V70ZM2.33333 2.33333H67.6667V67.6667H2.33333V2.33333Z" fill="white"/>
<path d="M57.1667 27.9999V16.3333H22.1667V27.9999H29.1667V23.3333H36.1667V48.9999H29.1667V55.9999H50.1667V48.9999H43.1667V23.3333H50.1667V27.9999H57.1667ZM40.8334 20.9999V51.3333H47.8334V53.6666H31.5V51.3333H38.5V20.9999H26.8334V25.6666H24.5V18.6666H54.8334V25.6666H52.5V20.9999H40.8334Z" fill="white"/>
<path d="M20.4167 12.9967L6.41669 4.83C5.85669 4.50333 5.14502 4.70167 4.81835 5.26167C4.71335 5.43667 4.66669 5.635 4.66669 5.845V25.6783C4.66669 26.215 5.02835 26.67 5.54169 26.81C5.63502 26.8333 5.74002 26.845 5.83335 26.845C6.25335 26.845 6.65002 26.6117 6.84835 26.25L12.4017 16.2633L19.9967 15.1783C20.6384 15.085 21.0817 14.5017 20.9884 13.86C20.9417 13.51 20.7317 13.195 20.4167 13.02V12.9967ZM11.4917 14.0117C11.13 14.0583 10.815 14.28 10.64 14.6067L7.00002 21.175V7.86333L16.345 13.3233L11.4917 14.0117Z" fill="white"/>
<path d="M18.6667 4.66675H14V7.00008H18.6667V4.66675Z" fill="white"/>
<path d="M25.6667 4.66675H21V7.00008H25.6667V4.66675Z" fill="white"/>
<path d="M32.6667 4.66675H28V7.00008H32.6667V4.66675Z" fill="white"/>
<path d="M39.6667 4.66675H35V7.00008H39.6667V4.66675Z" fill="white"/>
<path d="M46.6667 4.66675H42V7.00008H46.6667V4.66675Z" fill="white"/>
<path d="M53.6667 4.66675H49V7.00008H53.6667V4.66675Z" fill="white"/>
<path d="M60.6667 4.66675H56V7.00008H60.6667V4.66675Z" fill="white"/>
<path d="M25.6667 63H21V65.3333H25.6667V63Z" fill="white"/>
<path d="M32.6667 63H28V65.3333H32.6667V63Z" fill="white"/>
<path d="M18.6667 63H14V65.3333H18.6667V63Z" fill="white"/>
<path d="M39.6667 63H35V65.3333H39.6667V63Z" fill="white"/>
<path d="M46.6667 63H42V65.3333H46.6667V63Z" fill="white"/>
<path d="M53.6667 63H49V65.3333H53.6667V63Z" fill="white"/>
<path d="M60.6667 63H56V65.3333H60.6667V63Z" fill="white"/>
<path d="M65.3333 4.66675H63V9.33342H65.3333V4.66675Z" fill="white"/>
<path d="M65.3333 11.6667H63V16.3334H65.3333V11.6667Z" fill="white"/>
<path d="M65.3333 18.6667H63V23.3334H65.3333V18.6667Z" fill="white"/>
<path d="M65.3333 25.6667H63V30.3334H65.3333V25.6667Z" fill="white"/>
<path d="M65.3333 32.6667H63V37.3334H65.3333V32.6667Z" fill="white"/>
<path d="M65.3333 39.6667H63V44.3334H65.3333V39.6667Z" fill="white"/>
<path d="M65.3333 46.6667H63V51.3334H65.3333V46.6667Z" fill="white"/>
<path d="M65.3333 53.6667H63V58.3334H65.3333V53.6667Z" fill="white"/>
<path d="M65.3333 60.6667H63V65.3334H65.3333V60.6667Z" fill="white"/>
<path d="M7.00002 32.6667H4.66669V37.3334H7.00002V32.6667Z" fill="white"/>
<path d="M7.00002 39.6667H4.66669V44.3334H7.00002V39.6667Z" fill="white"/>
<path d="M7.00002 46.6667H4.66669V51.3334H7.00002V46.6667Z" fill="white"/>
<path d="M7.00002 53.6667H4.66669V58.3334H7.00002V53.6667Z" fill="white"/>
<path d="M7.00002 60.6667H4.66669V65.3334H7.00002H11.6667V63.0001H7.00002V60.6667Z" fill="white"/>
</svg>
