<svg width="100" height="100" viewBox="0 0 100 100" fill="none" xmlns="http://www.w3.org/2000/svg">
<g clip-path="url(#clip0_404_44)">
<path d="M85.3532 85.3536C104.879 65.8278 104.879 34.1702 85.3532 14.6444C65.8274 -4.88139 34.1698 -4.88138 14.644 14.6444C-4.88178 34.1702 -4.88178 65.8278 14.644 85.3536C34.1698 104.879 65.8274 104.879 85.3532 85.3536Z" fill="#FFD05D"/>
<path d="M76.1577 7.32477C81.1368 15.0978 84.0245 24.3407 84.0245 34.2571C84.0245 61.8712 61.6397 84.256 34.0256 84.256C24.4345 84.256 15.4772 81.5538 7.86682 76.8729C16.7532 90.7467 32.3033 99.9396 50.0011 99.9396C77.6152 99.9396 100 77.5547 100 49.9406C100 31.9177 90.461 16.1236 76.1598 7.32477H76.1577Z" fill="#FDC453"/>
<path d="M6.7951 55.2741C6.7951 29.6366 27.5787 8.85308 53.2162 8.85308C68.2012 8.85308 81.5267 15.9568 90.0148 26.9761C81.9979 13.0607 66.9753 3.69055 49.7613 3.69055C24.1238 3.69264 3.34021 24.4762 3.34021 50.1137C3.34021 60.7661 6.93063 70.5782 12.9647 78.4117C9.04068 71.5999 6.79719 63.6997 6.79719 55.2741H6.7951Z" fill="#FFD77F"/>
<path d="M31.5799 44.0775C33.6146 44.0775 35.2641 41.2975 35.2641 37.8683C35.2641 34.439 33.6146 31.6591 31.5799 31.6591C29.5451 31.6591 27.8956 34.439 27.8956 37.8683C27.8956 41.2975 29.5451 44.0775 31.5799 44.0775Z" fill="#303030"/>
<path d="M68.4202 44.0775C70.455 44.0775 72.1044 41.2975 72.1044 37.8683C72.1044 34.439 70.455 31.6591 68.4202 31.6591C66.3855 31.6591 64.736 34.439 64.736 37.8683C64.736 41.2975 66.3855 44.0775 68.4202 44.0775Z" fill="#303030"/>
<path d="M16.403 54.7278C18.3066 71.5998 32.6182 84.7146 50.0011 84.7146C67.384 84.7146 81.6935 71.5998 83.5992 54.7278H16.403Z" fill="#695342"/>
<path d="M26.7926 75.4801C32.8475 81.2015 41.0104 84.7147 50.001 84.7147C58.9917 84.7147 66.4498 81.4996 72.4151 76.2099L72.1044 75.4822C49.5423 64.4795 27.0991 75.33 26.7926 75.4781V75.4801Z" fill="#F06669"/>
</g>
<defs>
<clipPath id="clip0_404_44">
<rect width="100" height="100" fill="white"/>
</clipPath>
</defs>
</svg>
