<svg width="22" height="21" viewBox="0 0 22 21" fill="none" xmlns="http://www.w3.org/2000/svg">
<path d="M6.12 16.5C7.97522 19.305 11.0833 20.9925 14.413 21C15.8433 21 17 19.8263 17 18.375V2.625C17 1.17375 15.8433 0 14.413 0C11.0833 0.0075 7.97522 1.695 6.12 4.5H4.06522C1.81826 4.5 0 6.345 0 8.625V12.375C0 14.655 1.81826 16.5 4.06522 16.5H6.12ZM2.21739 12.375V8.625C2.21739 7.59 3.04522 6.75 4.06522 6.75H7.37283L7.69435 6.1875C9.08391 3.7575 11.6413 2.2575 14.413 2.25C14.6163 2.25 14.7826 2.41875 14.7826 2.625V18.375C14.7826 18.5812 14.6163 18.75 14.413 18.75C11.6413 18.7425 9.08391 17.2425 7.69435 14.8125L7.37283 14.25H4.06522C3.04522 14.25 2.21739 13.41 2.21739 12.375Z" fill="#5F5F5F"/>
<path d="M22 6H20V15H22V6Z" fill="#5F5F5F"/>
</svg>
