<svg width="59" height="60" viewBox="0 0 59 60" fill="none" xmlns="http://www.w3.org/2000/svg">
<path d="M53.4082 38.592C56.5642 34.392 58.2322 29.4 58.2322 24.126C58.2322 10.824 47.4142 0 34.1062 0C20.7982 0 9.98621 10.824 9.98621 24.126C9.98621 24.222 9.98621 24.318 9.98621 24.42C3.9022 27.138 0.00220575 33.132 0.00220575 39.828C0.00220575 43.476 1.14221 46.932 3.30221 49.854L0.0442057 58.974C-0.0577943 59.262 0.0202057 59.586 0.242206 59.796C0.386206 59.934 0.578206 60 0.764206 60C0.866206 60 0.974206 59.982 1.07021 59.934L10.9282 55.626C12.8362 56.346 14.8342 56.712 16.8802 56.712C23.0062 56.712 28.5982 53.43 31.5922 48.114C32.4202 48.198 33.2542 48.246 34.1062 48.246C37.0762 48.246 39.9802 47.706 42.7402 46.644L57.1522 52.938C57.2482 52.98 57.3562 53.004 57.4582 53.004C57.6502 53.004 57.8362 52.932 57.9802 52.8C58.2022 52.59 58.2802 52.272 58.1782 51.978L53.3962 38.586L53.4082 38.592ZM16.8862 55.182C14.9302 55.182 13.0222 54.816 11.2042 54.09C11.0122 54.012 10.8022 54.018 10.6102 54.102L2.09021 57.822L4.88621 49.98C4.97621 49.734 4.92821 49.458 4.77221 49.248C2.66021 46.53 1.53821 43.272 1.53821 39.828C1.53821 33.942 4.85021 28.656 10.0642 26.076C10.9522 37.08 19.2502 46.02 29.9482 47.886C27.1582 52.41 22.2502 55.176 16.8862 55.176V55.182ZM43.0702 45.12C42.9742 45.078 42.8662 45.054 42.7642 45.054C42.6682 45.054 42.5722 45.072 42.4822 45.108C39.8122 46.176 36.9922 46.716 34.1122 46.716C21.6562 46.716 11.5222 36.582 11.5222 24.126C11.5222 11.67 21.6502 1.536 34.1062 1.536C46.5622 1.536 56.6962 11.67 56.6962 24.126C56.6962 29.196 55.0522 33.984 51.9382 37.986C51.7762 38.196 51.7342 38.466 51.8182 38.718L56.1442 50.832L43.0642 45.12H43.0702Z" fill="white"/>
<path d="M39.2182 13.3079C38.0302 12.2399 36.4462 11.7059 34.4782 11.7059C32.7982 11.7059 31.3522 12.0899 30.1282 12.8519C28.9042 13.6139 27.9322 14.6939 27.2122 16.0919L30.3202 18.4139C30.7462 17.6519 31.2742 17.0579 31.8982 16.6319C32.5222 16.2059 33.2362 15.9959 34.0402 15.9959C34.8442 15.9959 35.5522 16.2299 36.0562 16.6979C36.5602 17.1659 36.8122 17.8079 36.8122 18.6119C36.8122 19.1819 36.6802 19.6859 36.4162 20.1359C36.1522 20.5859 35.7382 21.1319 35.1682 21.7859C34.4002 22.6799 33.8122 23.4959 33.4102 24.2399C33.0082 24.9839 32.8042 25.9199 32.8042 27.0539H36.6802C36.6802 26.3579 36.8242 25.7639 37.1182 25.2719C37.4062 24.7799 37.8682 24.1739 38.5042 23.4539C39.0322 22.8419 39.4642 22.3019 39.8002 21.8339C40.1362 21.3659 40.4182 20.7899 40.6462 20.1179C40.8802 19.4399 40.9942 18.6599 40.9942 17.7599C40.9942 15.8639 40.4002 14.3819 39.2122 13.3139L39.2182 13.3079Z" fill="white"/>
<path d="M34.9402 29.3699C34.0222 29.3699 33.2722 29.6459 32.6842 30.2039C32.0962 30.7619 31.8022 31.4519 31.8022 32.2799C31.8022 33.1079 32.1022 33.8099 32.7022 34.3919C33.3022 34.9679 34.0462 35.2559 34.9462 35.2559C35.8462 35.2559 36.5842 34.9679 37.1842 34.3919C37.7842 33.8159 38.0842 33.1139 38.0842 32.2799C38.0842 31.4459 37.7902 30.7559 37.2022 30.2039C36.6142 29.6459 35.8582 29.3699 34.9462 29.3699H34.9402Z" fill="white"/>
</svg>
