<svg width="64" height="60" viewBox="0 0 64 60" fill="none" xmlns="http://www.w3.org/2000/svg">
<path d="M44.4555 10.8789C39.7748 10.8789 35.312 13.0277 31.8183 16.942C28.4449 13.1704 24.0347 10.8789 19.2037 10.8789C8.61762 10.8789 0 21.8932 0 35.4395C0 48.9858 8.61011 60.0001 19.2037 60.0001C24.0272 60.0001 28.4374 57.7086 31.8183 53.937C35.312 57.8588 39.7598 60.0001 44.4555 60.0001C55.0416 60.0001 63.6592 48.9858 63.6592 35.4395C63.6592 21.8932 55.0491 10.8789 44.4555 10.8789ZM19.2112 57.7461C9.86481 57.7461 2.26147 47.7386 2.26147 35.4395C2.26147 23.1404 9.86481 13.1329 19.2112 13.1329C28.5576 13.1329 36.161 23.1404 36.161 35.4395C36.161 41.728 34.17 47.4155 30.9769 51.4726C30.9769 51.4802 30.9769 51.4802 30.9769 51.4877C27.919 55.357 23.7792 57.7461 19.2187 57.7461H19.2112ZM44.4555 57.7461C40.3082 57.7461 36.3563 55.7702 33.2533 52.1563C36.4465 47.7686 38.4074 41.8933 38.4074 35.4395C38.4074 28.9857 36.4465 23.1104 33.2533 18.7227C36.3563 15.1163 40.3233 13.1329 44.4555 13.1329C53.8019 13.1329 61.4053 23.1404 61.4053 35.4395C61.4053 47.7386 53.8019 57.7461 44.4555 57.7461Z" fill="#E1866A"/>
<path d="M3.6364 12.111C3.82423 12.2387 4.04211 12.2988 4.26 12.2988C4.51544 12.2988 4.77089 12.2087 4.98126 12.0359C10.3607 7.55048 20.0752 5.567 20.1729 5.55198C20.5035 5.48436 20.789 5.27399 20.9468 4.97346C21.1046 4.67293 21.1196 4.31981 20.9843 4.00426L19.5644 0.683432C19.3465 0.172536 18.7905 -0.105452 18.2495 0.0372983C5.71755 3.20035 3.28328 10.5257 3.18561 10.8413C3.04286 11.3146 3.22318 11.833 3.6364 12.111ZM17.8814 2.47157L18.3848 3.65114C16.3863 4.1395 12.4944 5.22891 8.74537 7.05461C10.6387 5.42425 13.5313 3.68871 17.8814 2.47157Z" fill="#E1866A"/>
<path d="M30.9618 9.66914C31.037 9.99972 31.2548 10.2777 31.5629 10.428C31.7206 10.5031 31.8935 10.5482 32.0663 10.5482C32.224 10.5482 32.3893 10.5106 32.5396 10.443C32.6297 10.4054 41.6456 6.31075 48.6403 6.78408C49.1437 6.82165 49.602 6.52112 49.7748 6.04779C49.9476 5.58197 49.7899 5.04853 49.3917 4.75552C49.1287 4.56018 42.8627 0.0522668 30.8566 4.84568C30.3457 5.04853 30.0527 5.597 30.1729 6.13795L30.9618 9.66914ZM42.6598 4.95086C38.5576 5.67213 34.7635 7.07709 32.8627 7.85095L32.5772 6.59625C36.8146 5.04102 40.173 4.74801 42.6598 4.95086Z" fill="#E1866A"/>
<path d="M56.8297 28.4145C56.6419 26.9194 56.0408 25.537 55.1393 24.5302C54.0799 23.3506 52.6749 22.7796 51.2925 22.9524C48.6178 23.2905 46.8522 26.2207 47.2805 29.6166C47.4683 31.1118 48.0694 32.4942 48.9709 33.501C49.9026 34.5378 51.1047 35.1088 52.3293 35.1088C52.4946 35.1088 52.6599 35.1088 52.8177 35.0787C54.2076 34.9059 55.4172 33.9968 56.1535 32.5919C56.7771 31.3973 57.0176 29.9172 56.8297 28.4145Z" fill="#E1866A"/>
<path d="M31.0821 32.5994C31.7056 31.3973 31.9461 29.9172 31.7582 28.4221C31.5704 26.927 30.9694 25.5445 30.0678 24.5378C29.0084 23.3582 27.6034 22.7872 26.221 22.96C23.5463 23.2981 21.7807 26.2282 22.209 29.6242C22.3968 31.1193 22.9979 32.5018 23.8994 33.5085C24.8311 34.5453 26.0332 35.1163 27.2578 35.1163C27.4231 35.1163 27.5884 35.1163 27.7462 35.0863C29.1361 34.906 30.3533 34.0044 31.0821 32.5994Z" fill="#E1866A"/>
</svg>
