<svg width="50" height="50" viewBox="0 0 50 50" fill="none" xmlns="http://www.w3.org/2000/svg">
<path d="M25 45.8334C13.4937 45.8334 4.16663 36.5063 4.16663 25.0001C4.16663 13.4938 13.4937 4.16675 25 4.16675C36.5062 4.16675 45.8333 13.4938 45.8333 25.0001C45.8333 36.5063 36.5062 45.8334 25 45.8334ZM25 41.6667C29.4202 41.6667 33.6595 39.9108 36.7851 36.7852C39.9107 33.6596 41.6666 29.4204 41.6666 25.0001C41.6666 20.5798 39.9107 16.3406 36.7851 13.215C33.6595 10.0894 29.4202 8.33341 25 8.33341C20.5797 8.33341 16.3405 10.0894 13.2148 13.215C10.0892 16.3406 8.33329 20.5798 8.33329 25.0001C8.33329 29.4204 10.0892 33.6596 13.2148 36.7852C16.3405 39.9108 20.5797 41.6667 25 41.6667ZM22.9166 31.2501H27.0833V35.4167H22.9166V31.2501ZM27.0833 27.823V29.1667H22.9166V26.0417C22.9166 25.4892 23.1361 24.9593 23.5268 24.5686C23.9175 24.1779 24.4474 23.9584 25 23.9584C25.5918 23.9584 26.1714 23.7903 26.6715 23.4737C27.1715 23.1571 27.5713 22.705 27.8245 22.17C28.0776 21.6351 28.1736 21.0392 28.1014 20.4518C28.0291 19.8644 27.7915 19.3096 27.4163 18.852C27.041 18.3943 26.5435 18.0526 25.9817 17.8667C25.4198 17.6807 24.8167 17.6581 24.2425 17.8016C23.6683 17.945 23.1467 18.2485 22.7382 18.6768C22.3298 19.1051 22.0514 19.6406 21.9354 20.2209L17.8479 19.4022C18.1013 18.1357 18.6864 16.9592 19.5435 15.993C20.4006 15.0268 21.499 14.3055 22.7262 13.9028C23.9534 13.5002 25.2656 13.4307 26.5285 13.7014C27.7914 13.972 28.9598 14.5732 29.9142 15.4435C30.8686 16.3137 31.5748 17.4218 31.9606 18.6544C32.3464 19.887 32.398 21.2 32.1101 22.4591C31.8222 23.7181 31.2051 24.8782 30.3219 25.8206C29.4387 26.7631 28.3211 27.4541 27.0833 27.823Z" fill="#DF7857"/>
</svg>
