<svg width="22" height="27" viewBox="0 0 22 27" fill="none" xmlns="http://www.w3.org/2000/svg">
<path d="M6.12 20.5C7.97522 23.305 11.0833 24.9925 14.413 25C15.8433 25 17 23.8262 17 22.375V6.625C17 5.17375 15.8433 4 14.413 4C11.0833 4.0075 7.97522 5.695 6.12 8.5H4.06522C1.81826 8.5 0 10.345 0 12.625V16.375C0 18.655 1.81826 20.5 4.06522 20.5H6.12ZM2.21739 16.375V12.625C2.21739 11.59 3.04522 10.75 4.06522 10.75H7.37283L7.69435 10.1875C9.08391 7.7575 11.6413 6.2575 14.413 6.25C14.6163 6.25 14.7826 6.41875 14.7826 6.625V22.375C14.7826 22.5813 14.6163 22.75 14.413 22.75C11.6413 22.7425 9.08391 21.2425 7.69435 18.8125L7.37283 18.25H4.06522C3.04522 18.25 2.21739 17.41 2.21739 16.375Z" fill="white"/>
<path d="M22 10H20V19H22V10Z" fill="white"/>
<path d="M19.2754 1.03771L17.5657 0L1.99999 25.6459L3.70972 26.6836L19.2754 1.03771Z" fill="white"/>
</svg>
