<svg width="22" height="23" viewBox="0 0 22 23" fill="none" xmlns="http://www.w3.org/2000/svg">
<path d="M6.12 18.0019C7.97522 20.9016 11.0833 22.646 14.413 22.6538C15.8433 22.6538 17 21.4404 17 19.9402V3.6586C17 2.15837 15.8433 0.945007 14.413 0.945007C11.0833 0.95276 7.97522 2.69721 6.12 5.59688H4.06522C1.81826 5.59688 0 7.50415 0 9.8611V13.7377C0 16.0946 1.81826 18.0019 4.06522 18.0019H6.12ZM2.21739 13.7377V9.8611C2.21739 8.79117 3.04522 7.92282 4.06522 7.92282H7.37283L7.69435 7.34134C9.08391 4.82932 11.6413 3.2787 14.413 3.27094C14.6163 3.27094 14.7826 3.44539 14.7826 3.6586V19.9402C14.7826 20.1534 14.6163 20.3278 14.413 20.3278C11.6413 20.3201 9.08391 18.7694 7.69435 16.2574L7.37283 15.6759H4.06522C3.04522 15.6759 2.21739 14.8076 2.21739 13.7377Z" fill="#5F5F5F"/>
<path d="M22 7.14752H20V16.4513H22V7.14752Z" fill="#5F5F5F"/>
</svg>
