<svg width="70" height="70" viewBox="0 0 70 70" fill="none" xmlns="http://www.w3.org/2000/svg">
<path d="M0 70H70V0H0V70ZM2.33333 2.33333H67.6667V67.6667H2.33333V2.33333Z" fill="#E3927A"/>
<path d="M57.1667 27.9999V16.3333H22.1667V27.9999H29.1667V23.3333H36.1667V48.9999H29.1667V55.9999H50.1667V48.9999H43.1667V23.3333H50.1667V27.9999H57.1667ZM40.8333 20.9999V51.3333H47.8333V53.6666H31.5V51.3333H38.5V20.9999H26.8333V25.6666H24.5V18.6666H54.8333V25.6666H52.5V20.9999H40.8333Z" fill="#E3927A"/>
<path d="M20.4167 12.9968L6.41668 4.83012C5.85668 4.50346 5.14501 4.70179 4.81834 5.26179C4.71334 5.43679 4.66668 5.63512 4.66668 5.84512V25.6785C4.66668 26.2151 5.02834 26.6701 5.54168 26.8101C5.63501 26.8335 5.74001 26.8451 5.83334 26.8451C6.25334 26.8451 6.65001 26.6118 6.84834 26.2501L12.4017 16.2635L19.9967 15.1785C20.6383 15.0851 21.0817 14.5018 20.9883 13.8601C20.9417 13.5101 20.7317 13.1951 20.4167 13.0201V12.9968ZM11.4917 14.0118C11.13 14.0585 10.815 14.2801 10.64 14.6068L7.00001 21.1751V7.86346L16.345 13.3235L11.4917 14.0118Z" fill="#E3927A"/>
<path d="M18.6667 4.66675H14V7.00008H18.6667V4.66675Z" fill="#E3927A"/>
<path d="M25.6667 4.66675H21V7.00008H25.6667V4.66675Z" fill="#E3927A"/>
<path d="M32.6667 4.66675H28V7.00008H32.6667V4.66675Z" fill="#E3927A"/>
<path d="M39.6667 4.66675H35V7.00008H39.6667V4.66675Z" fill="#E3927A"/>
<path d="M46.6667 4.66675H42V7.00008H46.6667V4.66675Z" fill="#E3927A"/>
<path d="M53.6667 4.66675H49V7.00008H53.6667V4.66675Z" fill="#E3927A"/>
<path d="M60.6667 4.66675H56V7.00008H60.6667V4.66675Z" fill="#E3927A"/>
<path d="M25.6667 63H21V65.3333H25.6667V63Z" fill="#E3927A"/>
<path d="M32.6667 63H28V65.3333H32.6667V63Z" fill="#E3927A"/>
<path d="M18.6667 63H14V65.3333H18.6667V63Z" fill="#E3927A"/>
<path d="M39.6667 63H35V65.3333H39.6667V63Z" fill="#E3927A"/>
<path d="M46.6667 63H42V65.3333H46.6667V63Z" fill="#E3927A"/>
<path d="M53.6667 63H49V65.3333H53.6667V63Z" fill="#E3927A"/>
<path d="M60.6667 63H56V65.3333H60.6667V63Z" fill="#E3927A"/>
<path d="M65.3333 4.66675H63V9.33342H65.3333V4.66675Z" fill="#E3927A"/>
<path d="M65.3333 11.6667H63V16.3334H65.3333V11.6667Z" fill="#E3927A"/>
<path d="M65.3333 18.6667H63V23.3334H65.3333V18.6667Z" fill="#E3927A"/>
<path d="M65.3333 25.6667H63V30.3334H65.3333V25.6667Z" fill="#E3927A"/>
<path d="M65.3333 32.6667H63V37.3334H65.3333V32.6667Z" fill="#E3927A"/>
<path d="M65.3333 39.6667H63V44.3334H65.3333V39.6667Z" fill="#E3927A"/>
<path d="M65.3333 46.6667H63V51.3334H65.3333V46.6667Z" fill="#E3927A"/>
<path d="M65.3333 53.6667H63V58.3334H65.3333V53.6667Z" fill="#E3927A"/>
<path d="M65.3333 60.6667H63V65.3334H65.3333V60.6667Z" fill="#E3927A"/>
<path d="M7.00001 32.6667H4.66668V37.3334H7.00001V32.6667Z" fill="#E3927A"/>
<path d="M7.00001 39.6667H4.66668V44.3334H7.00001V39.6667Z" fill="#E3927A"/>
<path d="M7.00001 46.6667H4.66668V51.3334H7.00001V46.6667Z" fill="#E3927A"/>
<path d="M7.00001 53.6667H4.66668V58.3334H7.00001V53.6667Z" fill="#E3927A"/>
<path d="M7.00001 60.6667H4.66668V65.3334H7.00001H11.6667V63.0001H7.00001V60.6667Z" fill="#E3927A"/>
</svg>
