<svg width="42" height="44" viewBox="0 0 42 44" fill="none" xmlns="http://www.w3.org/2000/svg">
<g clip-path="url(#clip0_79_747)">
<path d="M0.128252 23.1856C0.407397 23.9099 1.52398 23.9556 2.30106 23.9785V26.4488C2.30106 26.7614 2.55757 27.0206 2.86689 27.0206C3.17621 27.0206 3.43273 26.7614 3.43273 26.4488V23.9709C4.37578 23.9328 5.27357 23.8184 5.48482 23.5973C6.08837 22.9721 5.89222 19.6784 5.89222 19.6479C5.82432 18.6872 5.68097 18.4051 5.46218 18.2374C5.26603 18.0849 4.36069 17.9629 3.35728 17.9324V17.8486C3.35728 17.536 3.10077 17.2767 2.79145 17.2767C2.48212 17.2767 2.22561 17.536 2.22561 17.8486V17.9324C1.32028 17.9705 0.535653 18.1002 0.324408 18.3594C-0.0528146 18.8397 -0.075448 22.6748 0.128252 23.1856ZM1.24483 19.1523C1.97664 19.0303 4.04383 19.0227 4.70019 19.1447C4.84354 19.8385 4.82845 22.0038 4.67002 22.7129C4.02119 22.8272 1.73522 22.9645 1.16939 22.6976C1.07885 22.1029 1.14675 19.9148 1.24483 19.1523Z" fill="white"/>
<path d="M20.9887 6.04609C22.1354 6.04609 23.4255 5.93173 23.6896 5.66488C23.9914 5.3599 24.097 4.42974 24.1272 3.56056H27.1148C27.4241 3.56056 27.6806 3.30134 27.6806 2.98874C27.6806 2.67614 27.4241 2.41691 27.1148 2.41691H24.1347C24.1196 1.74597 24.0895 0.716688 23.6745 0.396466C23.2218 0.053371 19.0648 -0.121988 18.5518 0.518455C18.3858 0.724312 18.2878 1.56299 18.25 2.48553H17.8804C17.571 2.48553 17.3145 2.74476 17.3145 3.05736C17.3145 3.36995 17.571 3.62918 17.8804 3.62918H18.235C18.25 5.48189 18.0992 6.03847 21.0038 6.03847L20.9887 6.04609ZM19.4572 1.32663C20.189 1.21227 22.2562 1.20464 22.9125 1.31901C23.0559 1.99757 23.0332 4.08664 22.8823 4.78045C22.0977 4.91007 19.9249 5.00918 19.3817 4.76521C19.2912 4.18576 19.3591 2.07382 19.4572 1.33426V1.32663Z" fill="white"/>
<path d="M41.5021 0.426963C41.0494 0.091493 36.8924 -0.0914909 36.3794 0.548953C36.2209 0.747185 36.1229 1.54774 36.0776 2.43216C35.4665 2.5389 35.4439 3.40045 36.055 3.53007C36.055 4.35349 36.1002 5.0778 36.1757 5.28366C36.4775 6.03847 37.7298 6.05372 38.5371 6.06897V8.84422C38.5371 9.15682 38.7936 9.41605 39.1029 9.41605C39.4123 9.41605 39.6688 9.15682 39.6688 8.84422V6.04609C40.5364 6.00035 41.3285 5.88598 41.5247 5.68775C42.1358 5.07018 41.9396 1.87559 41.9321 1.84509C41.8642 0.876799 41.7209 0.594699 41.4945 0.419339L41.5021 0.426963ZM40.7174 4.81095C39.9328 4.94057 37.76 5.03968 37.2168 4.7957C37.1263 4.21626 37.1942 2.10432 37.2923 1.36476C38.0316 1.24277 40.0913 1.24277 40.7552 1.35713C40.8985 2.0357 40.8759 4.12476 40.725 4.81858L40.7174 4.81095Z" fill="white"/>
<path d="M20.9811 43.9695C22.1279 43.9695 23.4255 43.8551 23.6896 43.5883C23.9687 43.3062 24.0819 42.4751 24.1196 41.6517H27.1148C27.4241 41.6517 27.6806 41.3925 27.6806 41.0799C27.6806 40.7673 27.4241 40.5081 27.1148 40.5081H24.1347C24.1196 39.8447 24.1196 38.6553 23.667 38.3199C23.2143 37.9768 19.0573 37.8014 18.5443 38.4419C18.3783 38.6477 18.2802 39.5016 18.235 40.4318H18.0086C17.6993 40.4318 17.4428 40.691 17.4428 41.0036C17.4428 41.3162 17.6993 41.5755 18.0086 41.5755H18.2123C18.2274 43.3977 18.0841 43.9619 20.9811 43.9619V43.9695ZM19.4496 39.25C20.1814 39.1357 22.2486 39.1281 22.905 39.2424C23.0483 39.921 23.0257 42.01 22.8748 42.7039C22.0902 42.8335 19.9174 42.9326 19.3742 42.6886C19.2836 42.1092 19.3515 39.9972 19.4496 39.2577V39.25Z" fill="white"/>
<path d="M14.8475 2.48553H11.8297C11.5204 2.48553 11.2639 2.74476 11.2639 3.05736C11.2639 3.36996 11.5204 3.62918 11.8297 3.62918H14.8475C15.1568 3.62918 15.4133 3.36996 15.4133 3.05736C15.4133 2.74476 15.1568 2.48553 14.8475 2.48553Z" fill="white"/>
<path d="M8.81193 2.48553H6.29963C6.28454 1.85271 6.28454 0.655693 5.84696 0.312598C5.39429 -0.0304965 1.22975 -0.221105 0.709182 0.442212C0.331959 0.922545 0.309325 4.74996 0.513026 5.26841C0.754448 5.88598 1.58434 6.00035 2.23316 6.03847V8.69174C2.23316 9.00433 2.48967 9.26356 2.799 9.26356C3.10832 9.26356 3.36483 9.00433 3.36483 8.69174V6.06134C4.45878 6.04609 5.62817 5.93173 5.87714 5.6725C6.16383 5.37515 6.26945 4.48311 6.29963 3.62156H8.81947C9.1288 3.62156 9.38531 3.36233 9.38531 3.04973C9.38531 2.73714 9.1288 2.47791 8.81947 2.47791L8.81193 2.48553ZM5.04725 4.7957C4.26262 4.93294 2.08982 5.03206 1.54662 4.78046C1.45608 4.18576 1.52398 1.99758 1.62206 1.23514C2.35387 1.11315 4.42105 1.10553 5.07742 1.22752C5.22077 1.92133 5.20568 4.08664 5.04725 4.7957Z" fill="white"/>
<path d="M33.1504 2.41692H30.1326C29.8232 2.41692 29.5667 2.67614 29.5667 2.98874C29.5667 3.30134 29.8232 3.56057 30.1326 3.56057H33.1504C33.4597 3.56057 33.7162 3.30134 33.7162 2.98874C33.7162 2.67614 33.4597 2.41692 33.1504 2.41692Z" fill="white"/>
<path d="M39.1029 15.5231C39.4123 15.5231 39.6688 15.2639 39.6688 14.9513V11.9016C39.6688 11.589 39.4123 11.3298 39.1029 11.3298C38.7936 11.3298 38.5371 11.589 38.5371 11.9016V14.9513C38.5371 15.2639 38.7936 15.5231 39.1029 15.5231Z" fill="white"/>
<path d="M39.6612 24.5427C40.5515 24.497 41.3663 24.3826 41.5624 24.1767C42.166 23.5592 41.9698 20.2578 41.9698 20.2273C41.9019 19.2667 41.7586 18.977 41.5398 18.8092C41.3587 18.672 40.5666 18.5576 39.6612 18.5119V18.001C39.6612 17.6884 39.4047 17.4292 39.0954 17.4292C38.7861 17.4292 38.5295 17.6884 38.5295 18.001V18.4966C37.5337 18.5195 36.6283 18.6491 36.402 18.9312C36.0248 19.4115 36.0022 23.239 36.2059 23.7574C36.5001 24.5198 37.7223 24.5351 38.5295 24.5503V27.1884C38.5295 27.501 38.7861 27.7602 39.0954 27.7602C39.4047 27.7602 39.6612 27.501 39.6612 27.1884V24.5351V24.5427ZM37.247 23.2771C37.1565 22.6824 37.2168 20.4942 37.3224 19.7318C38.0542 19.6098 40.1214 19.6021 40.7778 19.7241C40.9211 20.418 40.9061 22.5833 40.7476 23.2923C39.963 23.4296 37.7902 23.5287 37.247 23.2771Z" fill="white"/>
<path d="M39.0954 29.6739C38.7861 29.6739 38.5295 29.9331 38.5295 30.2457V33.2954C38.5295 33.608 38.7861 33.8673 39.0954 33.8673C39.4047 33.8673 39.6612 33.608 39.6612 33.2954V30.2457C39.6612 29.9331 39.4047 29.6739 39.0954 29.6739Z" fill="white"/>
<path d="M2.79145 11.1773C2.48213 11.1773 2.22562 11.4365 2.22562 11.7491V14.7988C2.22562 15.1114 2.48213 15.3706 2.79145 15.3706C3.10077 15.3706 3.35729 15.1114 3.35729 14.7988V11.7491C3.35729 11.4365 3.10077 11.1773 2.79145 11.1773Z" fill="white"/>
<path d="M2.85935 33.1201C3.16868 33.1201 3.42519 32.8609 3.42519 32.5483V29.4985C3.42519 29.1859 3.17622 28.9267 2.85935 28.9267C2.54249 28.9267 2.29352 29.1859 2.29352 29.4985V32.5483C2.29352 32.8609 2.54249 33.1201 2.85935 33.1201Z" fill="white"/>
<path d="M2.29352 38.0149C1.52398 38.0683 0.890249 38.1903 0.701637 38.419C0.324414 38.8917 0.301781 42.6505 0.497937 43.1537C0.814804 43.9543 2.23316 43.939 3.14604 43.939C4.2928 43.939 5.59045 43.8246 5.84696 43.5578C6.13365 43.2681 6.23927 42.4141 6.27699 41.5831H8.94019C9.24951 41.5831 9.50602 41.3239 9.50602 41.0113C9.50602 40.6987 9.24951 40.4394 8.94019 40.4394H6.28454C6.26945 39.7837 6.2619 38.6248 5.82432 38.297C5.60554 38.1369 4.53422 38.0073 3.41764 37.992V35.6056C3.41764 35.293 3.16113 35.0338 2.85181 35.0338C2.54249 35.0338 2.28597 35.293 2.28597 35.6056V38.0225L2.29352 38.0149ZM5.04725 42.6734C4.26262 42.803 2.08982 42.9021 1.54662 42.6581C1.45608 42.0787 1.52398 39.9667 1.62206 39.2272C2.36142 39.1128 4.42106 39.1052 5.08497 39.2195C5.22831 39.8981 5.20568 41.9872 5.05479 42.681L5.04725 42.6734Z" fill="white"/>
<path d="M11.9731 40.4394C11.6637 40.4394 11.4072 40.6987 11.4072 41.0113C11.4072 41.3239 11.6637 41.5831 11.9731 41.5831H14.9908C15.3002 41.5831 15.5567 41.3239 15.5567 41.0113C15.5567 40.6987 15.3002 40.4394 14.9908 40.4394H11.9731Z" fill="white"/>
<path d="M36.0399 41.6365C36.055 43.4511 35.9192 44 38.8087 44C39.9555 44 41.2531 43.8856 41.5172 43.6188C42.1283 43.0012 41.9321 39.7914 41.9246 39.7609C41.8567 38.8002 41.7133 38.5181 41.487 38.3504C41.3059 38.2131 40.5439 38.1064 39.6537 38.0607V36.3376C39.6537 36.025 39.3972 35.7657 39.0878 35.7657C38.7785 35.7657 38.522 36.025 38.522 36.3376V38.0454C37.511 38.0683 36.5906 38.1903 36.3567 38.4724C36.1832 38.6858 36.0851 39.5779 36.0474 40.5309C35.4363 40.6453 35.4212 41.4916 36.0323 41.6288L36.0399 41.6365ZM37.2772 39.2882C38.0165 39.1738 40.0762 39.1662 40.7325 39.2805C40.8759 39.9591 40.8532 42.0482 40.7024 42.742C39.9177 42.8716 37.7449 42.9707 37.2017 42.7267C37.1112 42.1473 37.1791 40.0354 37.2772 39.2958V39.2882Z" fill="white"/>
<path d="M33.1428 40.5157H30.125C29.8157 40.5157 29.5592 40.7749 29.5592 41.0875C29.5592 41.4001 29.8157 41.6593 30.125 41.6593H33.1428C33.4521 41.6593 33.7086 41.4001 33.7086 41.0875C33.7086 40.7749 33.4521 40.5157 33.1428 40.5157Z" fill="white"/>
<path d="M13.6102 11.0248C12.6973 11.0248 11.958 11.772 11.958 12.6945V17.6427C11.958 18.1917 12.3955 18.6339 12.9387 18.6339H13.7158C14.3269 18.6339 14.8475 18.1764 14.938 17.536C15.1342 16.2093 16.5148 14.7988 18.7782 14.4557C18.9064 14.4405 19.0271 14.5548 19.0271 14.6997L19.095 25.2975C19.1327 26.1743 18.8989 26.9749 18.3783 27.7449C18.0916 28.1719 17.4428 28.2863 16.7789 28.3549C16.0772 28.4235 15.5491 29.0182 15.5491 29.7273V30.5659C15.5491 30.9548 15.7076 31.3207 15.9867 31.5876C16.6355 32.1975 17.1938 31.8926 19.095 31.7401C19.1705 31.7401 23.0408 31.7401 22.7994 31.7401C24.5798 31.8697 25.2739 32.2204 25.9529 31.5876C26.2321 31.3284 26.3905 30.9548 26.3905 30.5659V29.7273C26.3905 29.0182 25.8624 28.4235 25.1608 28.3473C24.4969 28.2786 23.848 28.1567 23.5613 27.7373C23.0408 26.9673 22.8069 26.1667 22.8446 25.267C22.9502 14.105 22.8446 14.6387 23.0031 14.5015C23.0332 14.471 23.0936 14.4405 23.1615 14.4481C25.4399 14.7912 26.813 16.217 27.0016 17.5283C27.0922 18.1612 27.6127 18.6262 28.2238 18.6262H29.0009C29.5366 18.6262 29.9817 18.184 29.9817 17.6351V12.6869C29.9817 11.7643 29.2423 11.0172 28.3294 11.0172C14.5834 10.9638 21.9544 11.0172 13.5951 11.0172L13.6102 11.0248Z" fill="white"/>
</g>
<defs>
<clipPath id="clip0_79_747">
<rect width="42" height="44" fill="white"/>
</clipPath>
</defs>
</svg>
