<svg width="100" height="100" viewBox="0 0 100 100" fill="none" xmlns="http://www.w3.org/2000/svg">
<g clip-path="url(#clip0_281_191)">
<path d="M85.3559 85.3574C104.882 65.8307 104.882 34.1717 85.3559 14.645C65.8297 -4.88168 34.1715 -4.88168 14.6453 14.645C-4.88096 34.1717 -4.88096 65.8307 14.6453 85.3574C34.1715 104.884 65.8297 104.884 85.3559 85.3574Z" fill="#FFD05D"/>
<path d="M76.4903 7.53113C81.4074 15.3434 84.2242 24.6082 84.1459 34.5233C83.9308 62.1366 61.3698 84.3485 33.7572 84.1309C24.1674 84.0551 15.2306 81.2847 7.65564 76.5435C16.4336 90.4859 31.9111 99.802 49.6063 99.9389C77.2189 100.154 99.7799 77.9446 99.9951 50.3313C100.137 32.308 90.7208 16.4389 76.4879 7.53113H76.4903Z" fill="#FDC453"/>
<path d="M6.75576 54.938C6.95626 29.3004 27.9011 8.68033 53.538 8.88083C68.5241 8.9982 81.7912 16.2041 90.1926 27.2905C82.2851 13.3115 67.3357 3.82667 50.1222 3.69218C24.4852 3.49168 3.54044 24.1118 3.33994 49.7494C3.25681 60.4005 6.77043 70.2423 12.7414 78.1231C8.87078 71.2815 6.6873 63.364 6.75331 54.938H6.75576Z" fill="#FFD77F"/>
<path d="M35.3586 37.7558C35.3317 41.1864 33.6617 43.9519 31.6274 43.9372C29.5931 43.9225 27.9646 41.1277 27.9915 37.6996C28.0184 34.269 29.6884 31.5035 31.7252 31.5182C33.7595 31.5329 35.388 34.3277 35.3611 37.7558H35.3586Z" fill="#303030"/>
<path d="M72.1967 38.0419C72.1698 41.4724 70.4998 44.2379 68.463 44.2233C66.4287 44.2086 64.8002 41.4138 64.8271 37.9856C64.854 34.5551 66.524 31.7896 68.5608 31.8043C70.5951 31.8189 72.2236 34.6138 72.1967 38.0419Z" fill="#303030"/>
<path d="M79.708 27.6182C79.1701 27.4568 78.6493 27.3076 78.1383 27.1585C77.0184 26.8357 75.9597 26.5301 74.9352 26.1658C73.407 25.6352 72.0328 25.0385 70.7369 24.3417C69.3726 23.6057 68.1329 22.789 66.9495 21.8403C65.656 20.8182 64.4554 19.6274 63.3527 18.4904C63.2891 18.4268 63.1938 18.4072 63.1106 18.4415C63.0275 18.4781 62.9762 18.5588 62.9786 18.6493C63.0495 20.356 63.7097 22.1263 64.8931 23.7695C65.9739 25.2537 67.4262 26.5105 69.0938 27.4006C70.6636 28.2417 72.4216 28.7625 74.1919 28.9092C74.2603 28.9141 74.3288 28.919 74.3972 28.9239C76.3827 29.0437 78.1774 28.7405 79.7349 28.0192C79.8156 27.9825 79.867 27.8969 79.8596 27.8065C79.8523 27.716 79.7912 27.6402 79.7056 27.6133L79.708 27.6182Z" fill="#414042"/>
<path d="M20.644 27.1585C21.1844 27.0045 21.7076 26.8626 22.2211 26.7233C23.3459 26.4176 24.4095 26.1291 25.4389 25.7819C26.9744 25.2757 28.3583 24.7011 29.6665 24.0238C31.0431 23.3098 32.295 22.5102 33.4931 21.5835C34.8036 20.5834 36.0213 19.4098 37.1436 18.2899C37.2072 18.2263 37.3025 18.2092 37.3857 18.2459C37.4688 18.2825 37.5177 18.3657 37.5128 18.4561C37.4175 20.1629 36.7279 21.9209 35.5201 23.5445C34.4173 25.0116 32.9429 26.244 31.2631 27.1096C29.6811 27.9263 27.9158 28.4202 26.1406 28.5376C26.0722 28.5425 26.0037 28.5474 25.9352 28.5498C23.9474 28.6378 22.1575 28.3053 20.6122 27.562C20.5315 27.5228 20.4826 27.4372 20.49 27.3468C20.4973 27.2563 20.5609 27.1805 20.6465 27.1561L20.644 27.1585Z" fill="#414042"/>
<path d="M60.4943 57.6644C57.6678 55.1777 53.8241 53.757 49.9657 53.801C46.1733 53.7864 42.3419 55.141 39.4493 57.5226C37.9896 58.7403 36.767 60.2269 35.9088 61.8359C35.0041 63.5842 34.5273 65.3496 34.4955 67.0807C34.4882 67.4964 34.7449 67.8681 35.1361 68.0075C35.5273 68.1468 35.9626 68.0197 36.2193 67.6945C37.2658 66.3619 38.2561 65.3056 39.2439 64.4693C40.3075 63.5817 41.4347 62.8433 42.5962 62.2711C44.9092 61.1365 47.457 60.5424 49.9657 60.5521C52.5429 60.5521 54.9782 61.1512 57.2203 62.3371C59.5285 63.5426 61.6411 65.4156 63.4994 67.9023C63.6828 68.1493 63.9688 68.2862 64.2647 68.2887C64.3698 68.2887 64.475 68.274 64.5801 68.2373C64.9762 68.1053 65.2403 67.7336 65.2378 67.3155C65.211 63.8287 63.4382 60.2172 60.4992 57.6644H60.4943Z" fill="#5E4939"/>
<path d="M72.8471 47.4802C57.9026 64.303 59.4724 74.0299 59.4724 74.0299C59.4161 81.3018 65.2648 87.2435 72.5366 87.2998C79.8083 87.356 85.7499 81.5072 85.8062 74.2352C85.8062 74.2352 87.5251 64.5353 72.8471 47.4802Z" fill="#7CC4E8"/>
<path d="M62.7806 82.8593C65.1695 85.5564 68.6489 87.268 72.5342 87.2973C79.8059 87.3536 85.7475 81.5047 85.8038 74.2328C85.8038 74.2328 86.5202 70.1518 83.031 62.6403C80.2778 79.688 69.5316 82.7126 62.7782 82.8569L62.7806 82.8593Z" fill="#62BBE8"/>
</g>
<defs>
<clipPath id="clip0_281_191">
<rect width="100" height="100" fill="white"/>
</clipPath>
</defs>
</svg>
