<svg width="62" height="44" viewBox="0 0 62 44" fill="none" xmlns="http://www.w3.org/2000/svg">
<g clip-path="url(#clip0_423_319)">
<path d="M59.0715 0H2.52851C1.13445 0 0 1.13503 0 2.5298V41.4702C0 42.865 1.13445 44 2.52851 44H59.0715C60.4656 44 61.6 42.865 61.6 41.4702V2.5298C61.6 1.13503 60.4656 0 59.0715 0ZM60.4199 41.4702C60.4199 42.214 59.8149 42.8193 59.0715 42.8193H2.52851C1.78506 42.8193 1.18008 42.214 1.18008 41.4702V2.5298C1.18008 1.78597 1.78506 1.18068 2.52851 1.18068H59.0715C59.8149 1.18068 60.4199 1.78597 60.4199 2.5298V41.4702Z" fill="white"/>
<path d="M25.9287 25.4822C26.1529 25.6066 26.3968 25.6688 26.6391 25.6688C26.9066 25.6688 27.1733 25.5932 27.414 25.4429L34.9625 20.7225C35.3929 20.4533 35.6501 19.9889 35.6501 19.4804C35.6501 18.9719 35.3929 18.5083 34.9625 18.2384L27.414 13.518C26.9561 13.2315 26.4007 13.2173 25.9287 13.4786C25.4566 13.7408 25.175 14.2193 25.175 14.7593V24.1992C25.175 24.7415 25.4566 25.2201 25.9287 25.4822Z" fill="white"/>
<path d="M15.695 34.0036C14.183 34.0036 12.9211 35.0898 12.6442 36.5224H5.62506V37.703H12.6442C12.9203 39.1356 14.183 40.2218 15.695 40.2218C17.2071 40.2218 18.469 39.1356 18.7459 37.703H55.975V36.5224H18.7459C18.469 35.0898 17.2071 34.0036 15.695 34.0036Z" fill="white"/>
</g>
<defs>
<clipPath id="clip0_423_319">
<rect width="61.6" height="44" fill="white"/>
</clipPath>
</defs>
</svg>
